#!OML:ASF I:\Actors\actors\Patient Classification 1\Patient 1\Session 1\Subject1.ASF
:FULLY-SPECIFIED
:DEGREES
790
root 0.875759 17.4282 9.67191 9.21413 -3.15759 -8.15555
lowerback -2.77083 4.23848 8.63992
upperback -9.02974 5.88681 0.530708
thorax -7.20416 2.3574 -4.40162
lowerneck -10.3266 4.28909 6.10009
upperneck 35.9586 5.19661 -0.345226
head 14.2134 3.10532 -0.418902
rclavicle 2.18663e-014 1.59028e-015
rhumerus -29.0586 59.48 -115.922
rradius 94.0807
rwrist 14.6072
rhand -7.10748 -53.82
rfingers 7.12502
rthumb 18.7674 -802.935
lclavicle 2.18663e-014 1.59028e-015
lhumerus -48.2055 -2.78421 92.9906
lradius 109.517
lwrist 74.7075
lhand -17.704 9.20627
lfingers 7.12502
lthumb 8.55598 39.0129
rfemur -1.77619 25.3373 24.3789
rtibia 2.7032
rfoot -13.8349 -27.2391
rtoes 1.44332
lfemur 8.85098 -42.8311 -15.5144
ltibia -4.55734
lfoot -23.9542 51.8691
ltoes 9.8477
791
root 0.875243 17.4276 9.67164 9.20216 -3.20718 -8.17899
lowerback -2.69124 4.25 8.77307
upperback -9.12434 5.91766 0.495406
thorax -7.33753 2.35254 -4.52305
lowerneck -10.3664 4.30653 6.0732
upperneck 36.1255 5.19483 -0.241226
head 14.2954 3.11632 -0.368895
rclavicle 1.92324e-014 -1.27222e-014
rhumerus -29.5908 59.6828 -116.844
rradius 93.1732
rwrist 14.9402
rhand -6.45241 -55.7216
rfingers 7.12502
rthumb 19.3974 -804.774
lclavicle 1.92324e-014 -1.27222e-014
lhumerus -48.043 -3.1085 93.1302
lradius 109.629
lwrist 74.5771
lhand -17.1394 8.10838
lfingers 7.12502
lthumb 9.1008 37.892
rfemur -1.7712 25.3335 24.4099
rtibia 2.71974
rfoot -13.8342 -27.1878
rtoes 1.47935
lfemur 8.8818 -42.759 -15.4873
ltibia -4.58643
lfoot -23.9298 51.8458
ltoes 9.84607
792
root 0.873339 17.4273 9.67119 9.18851 -3.2621 -8.23741
lowerback -2.66702 4.26178 8.88019
upperback -9.18196 5.94171 0.493172
thorax -7.40432 2.35171 -4.58892
lowerneck -10.4342 4.31931 6.11248
upperneck 36.2923 5.21522 -0.271464
head 14.3923 3.12757 -0.380688
rclavicle 4.23411e-014 -1.47101e-014
rhumerus -30.3933 58.2092 -118.172
rradius 92.1772
rwrist 15.9203
rhand -5.20196 -56.6194
rfingers 7.12502
rthumb 20.5994 -805.546
lclavicle 4.23411e-014 -1.47101e-014
lhumerus -47.8126 -3.28098 93.2038
lradius 109.656
lwrist 74.1382
lhand -16.1419 7.38896
lfingers 7.12502
lthumb 10.0633 37.1283
rfemur -1.77618 25.3732 24.4911
rtibia 2.76498
rfoot -13.89 -27.1542
rtoes 1.54216
lfemur 8.97199 -42.8575 -15.4888
ltibia -4.59995
lfoot -23.9983 51.9758
ltoes 9.82684
793
root 0.868641 17.4275 9.67102 9.14926 -3.37028 -8.31291
lowerback -2.65938 4.29783 8.91627
upperback -9.21979 5.99526 0.518077
thorax -7.44334 2.3736 -4.58519
lowerneck -10.4623 4.286 6.27158
upperneck 36.4605 5.20733 -0.492137
head 14.4914 3.11799 -0.496789
rclavicle 3.80673e-014 1.78906e-014
rhumerus -30.3586 59.1964 -118.109
rradius 91.7613
rwrist 13.8194
rhand -5.06404 -59.0433
rfingers 7.12502
rthumb 20.7319 -807.956
lclavicle 3.80673e-014 1.78906e-014
lhumerus -47.6363 -3.26263 93.1529
lradius 109.578
lwrist 73.7055
lhand -15.2794 7.47867
lfingers 7.12502
lthumb 10.8953 37.176
rfemur -1.7552 25.4786 24.6127
rtibia 2.80569
rfoot -13.8941 -27.1453
rtoes 1.48223
lfemur 9.17072 -42.981 -15.5354
ltibia -4.65527
lfoot -24.2496 52.1757
ltoes 9.9602
794
root 0.865115 17.4268 9.67107 9.1094 -3.43974 -8.33866
lowerback -2.65243 4.31455 8.91323
upperback -9.27098 6.02258 0.533698
thorax -7.50238 2.38346 -4.57038
lowerneck -10.4493 4.25166 6.42179
upperneck 36.5953 5.2049 -0.718667
head 14.5657 3.10898 -0.615022
rclavicle 1.78906e-014 -7.15625e-015
rhumerus -30.7988 57.6981 -118.741
rradius 91.5188
rwrist 12.5195
rhand -6.2801 -58.9347
rfingers 7.12502
rthumb 19.5631 -807.97
lclavicle 1.78906e-014 -7.15625e-015
lhumerus -47.5527 -3.23644 93.0428
lradius 109.41
lwrist 73.719
lhand -15.2579 7.57851
lfingers 7.12502
lthumb 10.916 37.2748
rfemur -1.71912 25.5417 24.6691
rtibia 2.81741
rfoot -13.8677 -27.1484
rtoes 1.55733
lfemur 9.37486 -43.1694 -15.6574
ltibia -4.70405
lfoot -24.6664 52.3862
ltoes 10.3767
795
root 0.864968 17.425 9.67149 9.10139 -3.41117 -8.30371
lowerback -2.71157 4.28786 8.89935
upperback -9.31154 5.98369 0.555412
thorax -7.52214 2.36396 -4.53655
lowerneck -10.4478 4.24617 6.38645
upperneck 36.6937 5.23538 -0.789073
head 14.6139 3.10894 -0.632202
rclavicle -1.98785e-015 -2.54444e-014
rhumerus -30.1305 58.736 -117.912
rradius 91.6924
rwrist 10.0059
rhand -6.64372 -60.008
rfingers 7.12502
rthumb 19.2135 -809.079
lclavicle -1.98785e-015 -2.54444e-014
lhumerus -47.5033 -3.29574 93.0389
lradius 109.219
lwrist 73.9507
lhand -15.9198 6.96402
lfingers 7.12502
lthumb 10.2775 36.6929
rfemur -1.69472 25.5003 24.6332
rtibia 2.78671
rfoot -13.7894 -27.1631
rtoes 1.5527
lfemur 9.4575 -43.3925 -15.7937
ltibia -4.68719
lfoot -24.9438 52.5371
ltoes 10.674
796
root 0.86496 17.424 9.6717 9.11242 -3.34771 -8.26631
lowerback -2.79272 4.23613 8.87477
upperback -9.33119 5.90861 0.601039
thorax -7.51419 2.33029 -4.46859
lowerneck -10.4891 4.25938 6.28198
upperneck 36.7433 5.28219 -0.792956
head 14.6443 3.11404 -0.6069
rclavicle -7.05686e-015 -1.59028e-015
rhumerus -29.5792 58.1087 -117.376
rradius 91.733
rwrist 9.19483
rhand -5.60047 -60.0766
rfingers 7.12502
rthumb 20.2164 -809.045
lclavicle -7.05686e-015 -1.59028e-015
lhumerus -47.4919 -3.41342 93.157
lradius 109.047
lwrist 73.8581
lhand -16.3134 6.10425
lfingers 7.12502
lthumb 9.89776 35.8516
rfemur -1.68502 25.4949 24.5947
rtibia 2.76227
rfoot -13.8066 -27.209
rtoes 1.59009
lfemur 9.42166 -43.4051 -15.8059
ltibia -4.69019
lfoot -24.759 52.5193
ltoes 10.4112
797
root 0.86433 17.4245 9.6719 9.12154 -3.31217 -8.1818
lowerback -2.86685 4.16801 8.78009
upperback -9.35064 5.81047 0.636979
thorax -7.51686 2.28918 -4.37312
lowerneck -10.5277 4.28799 6.31082
upperneck 36.7562 5.36664 -0.934773
head 14.6692 3.13457 -0.656072
rclavicle -2.48481e-016 3.45885e-014
rhumerus -29.5002 56.1061 -117.511
rradius 91.6256
rwrist 9.42915
rhand -4.1638 -59.2396
rfingers 7.12502
rthumb 21.5967 -808.055
lclavicle -2.48481e-016 3.45885e-014
lhumerus -47.5531 -3.56169 93.2714
lradius 108.934
lwrist 73.5832
lhand -16.171 5.55345
lfingers 7.12502
lthumb 10.0352 35.2942
rfemur -1.69151 25.4882 24.4919
rtibia 2.76039
rfoot -13.9392 -27.21
rtoes 1.8553
lfemur 9.40475 -43.4425 -15.8973
ltibia -4.68125
lfoot -24.7549 52.5059
ltoes 10.427
798
root 0.863732 17.4253 9.67232 9.10373 -3.29451 -8.0662
lowerback -2.91326 4.08779 8.68605
upperback -9.38067 5.69817 0.642423
thorax -7.54565 2.23803 -4.31284
lowerneck -10.4858 4.30596 6.39406
upperneck 36.7493 5.44066 -1.11768
head 14.6698 3.15307 -0.735587
rclavicle -9.79014e-015 1.43125e-014
rhumerus -28.6218 57.6809 -116.421
rradius 91.7559
rwrist 7.40108
rhand -4.17124 -59.7181
rfingers 7.12502
rthumb 21.5895 -808.535
lclavicle -9.79014e-015 1.43125e-014
lhumerus -47.7124 -3.69727 93.3398
lradius 108.963
lwrist 73.4409
lhand -15.9891 5.34873
lfingers 7.12502
lthumb 10.2107 35.0809
rfemur -1.66975 25.4441 24.3574
rtibia 2.73963
rfoot -14.0165 -27.1988
rtoes 2.00753
lfemur 9.45023 -43.568 -16.0953
ltibia -4.64495
lfoot -25.0293 52.5385
ltoes 10.7972
799
root 0.862578 17.4255 9.67204 9.05313 -3.28038 -8.07503
lowerback -2.89086 4.00359 8.72945
upperback -9.41407 5.59263 0.675283
thorax -7.61059 2.17939 -4.30444
lowerneck -10.4523 4.28863 6.32147
upperneck 36.7724 5.42905 -1.10576
head 14.6686 3.13915 -0.720941
rclavicle 2.56929e-014 4.6118e-014
rhumerus -28.227 58.1941 -115.889
rradius 91.7991
rwrist 6.041
rhand -3.69846 -59.3896
rfingers 7.12502
rthumb 22.0435 -808.153
lclavicle 2.56929e-014 4.6118e-014
lhumerus -47.9277 -3.7747 93.4178
lradius 109.119
lwrist 73.4224
lhand -15.8291 5.21986
lfingers 7.12502
lthumb 10.365 34.9444
rfemur -1.60715 25.4603 24.4
rtibia 2.7394
rfoot -14.0336 -27.2262
rtoes 1.88983
lfemur 9.51918 -43.4948 -16.0964
ltibia -4.71177
lfoot -24.8071 52.5119
ltoes 10.5486
800
root 0.866415 17.4225 9.66946 8.90566 -3.1791 -8.44545
lowerback -2.66817 3.92112 9.24258
upperback -9.4451 5.52667 0.778067
thorax -7.76144 2.10424 -4.49493
lowerneck -10.509 4.23094 6.08797
upperneck 36.8712 5.32976 -0.919746
head 14.7067 3.08818 -0.617532
rclavicle -3.01159e-014 -4.77083e-015
rhumerus -28.0946 58.0539 -115.594
rradius 91.901
rwrist 4.39307
rhand -2.78877 -58.7912
rfingers 7.12502
rthumb 22.9167 -807.449
lclavicle -3.01159e-014 -4.77083e-015
lhumerus -48.1177 -3.83346 93.5478
lradius 109.278
lwrist 73.2578
lhand -15.7858 4.87881
lfingers 7.12502
lthumb 10.4068 34.6013
rfemur -1.38482 25.2377 24.9269
rtibia 2.73169
rfoot -13.9487 -27.0698
rtoes 1.52355
lfemur 9.78374 -43.3023 -15.7886
ltibia -4.8637
lfoot -24.3411 52.3883
ltoes 10.0744
801
root 0.875796 17.4155 9.66468 8.69899 -2.99556 -9.10265
lowerback -2.31573 3.84098 10.2055
upperback -9.48058 5.49639 0.899685
thorax -7.96567 2.00999 -4.92127
lowerneck -10.554 4.13447 5.94819
upperneck 37.008 5.21056 -0.898152
head 14.7695 3.01993 -0.601464
rclavicle 4.48756e-014 -1.19271e-015
rhumerus -27.993 57.5997 -115.288
rradius 92.1822
rwrist 1.38261
rhand -1.76198 -58.2368
rfingers 7.12502
rthumb 23.9017 -806.769
lclavicle 4.48756e-014 -1.19271e-015
lhumerus -48.2513 -3.86575 93.6549
lradius 109.366
lwrist 72.8914
lhand -16.1047 4.31641
lfingers 7.12502
lthumb 10.0991 34.0541
rfemur -1.05612 24.7421 25.8088
rtibia 2.6899
rfoot -13.7965 -26.7133
rtoes 1.29396
lfemur 10.1384 -43.1084 -15.2475
ltibia -4.96257
lfoot -24.0065 52.1875
ltoes 9.72407
802
root 0.880084 17.412 9.66052 8.60014 -2.88963 -9.43508
lowerback -2.19524 3.7761 10.7049
upperback -9.49373 5.44387 0.96532
thorax -8.03789 1.94441 -5.13364
lowerneck -10.6127 4.00704 5.9005
upperneck 37.0961 5.08703 -1.06566
head 14.8223 2.93636 -0.680963
rclavicle -8.59744e-015 1.27222e-014
rhumerus -27.9344 56.8543 -114.952
rradius 92.6051
rwrist -2.34419
rhand -0.575968 -57.6978
rfingers 7.12502
rthumb 25.0386 -806.077
lclavicle -8.59744e-015 1.27222e-014
lhumerus -48.2675 -3.80368 93.6976
lradius 109.403
lwrist 72.7366
lhand -16.5515 3.83948
lfingers 7.12502
lthumb 9.6681 33.5976
rfemur -0.90688 24.4828 26.2517
rtibia 2.67985
rfoot -13.7192 -26.5359
rtoes 1.30889
lfemur 10.209 -42.9075 -14.8927
ltibia -4.95515
lfoot -23.7396 51.973
ltoes 9.4285
803
root 0.874961 17.4176 9.6608 8.68795 -2.94225 -9.02723
lowerback -2.45496 3.75532 10.1361
upperback -9.4994 5.36434 0.924743
thorax -7.93284 1.95218 -4.84501
lowerneck -10.6657 3.85721 5.8173
upperneck 36.9819 4.95307 -1.28778
head 14.7756 2.83467 -0.780372
rclavicle 4.9895e-014 6.75868e-015
rhumerus -28.0373 56.0237 -114.583
rradius 93.1354
rwrist -5.26008
rhand 0.646841 -57.3114
rfingers 7.12502
rthumb 26.2098 -805.522
lclavicle 4.9895e-014 6.75868e-015
lhumerus -48.1972 -3.64775 93.7417
lradius 109.43
lwrist 72.9588
lhand -16.7769 3.73613
lfingers 7.12502
lthumb 9.45065 33.5042
rfemur -1.04285 24.6887 25.7402
rtibia 2.68374
rfoot -13.7466 -26.7292
rtoes 1.21512
lfemur 9.96787 -42.8605 -15.1947
ltibia -4.87986
lfoot -23.8059 51.8827
ltoes 9.61589
804
root 0.864248 17.4274 9.6664 8.8689 -3.10521 -8.21426
lowerback -2.85447 3.77453 9.03628
upperback -9.54625 5.3108 0.78133
thorax -7.80963 2.00723 -4.36606
lowerneck -10.5784 3.68147 5.72497
upperneck 36.6263 4.8042 -1.56353
head 14.582 2.71812 -0.90596
rclavicle -3.40916e-014 -3.37934e-014
rhumerus -28.2409 54.9231 -114.169
rradius 93.6892
rwrist -7.14639
rhand 2.36422 -56.4599
rfingers 7.12502
rthumb 27.8529 -804.415
lclavicle -3.40916e-014 -3.37934e-014
lhumerus -48.1442 -3.42548 93.7595
lradius 109.447
lwrist 73.3701
lhand -16.7697 4.04798
lfingers 7.12502
lthumb 9.45755 33.8158
rfemur -1.3038 25.1506 24.706
rtibia 2.6561
rfoot -13.8387 -27.1036
rtoes 1.34523
lfemur 9.66722 -43.0831 -15.9719
ltibia -4.76385
lfoot -24.1898 52.0649
ltoes 9.995
